<svg width="24" height="24" viewBox="0 0 24 24" fill="none" xmlns="http://www.w3.org/2000/svg">
<rect width="24" height="24" fill="white"/>
<path d="M12 3.25C9.10051 3.25 6.75 5.60051 6.75 8.5C6.75 11.3995 9.10051 13.75 12 13.75C14.8995 13.75 17.25 11.3995 17.25 8.5C17.25 5.60051 14.8995 3.25 12 3.25Z" fill="black"/>
<path d="M9 15.25C6.92893 15.25 5.25 16.9289 5.25 19V20C5.25 21.5188 6.48122 22.75 8 22.75H11.9988C12.5258 22.75 12.9205 22.4357 13.1195 22.0722C13.3149 21.7151 13.3615 21.2474 13.1596 20.823C12.8973 20.2714 12.7501 19.654 12.7501 19C12.7501 18.346 12.8973 17.7286 13.1596 17.177C13.3615 16.7526 13.3149 16.2849 13.1195 15.9278C12.9205 15.5643 12.5258 15.25 11.9988 15.25H9Z" fill="black"/>
<path d="M18.75 16C18.75 15.5858 18.4142 15.25 18 15.25C17.5858 15.25 17.25 15.5858 17.25 16V18.25H15C14.5858 18.25 14.25 18.5858 14.25 19C14.25 19.4142 14.5858 19.75 15 19.75H17.25V22C17.25 22.4142 17.5858 22.75 18 22.75C18.4142 22.75 18.75 22.4142 18.75 22V19.75H21C21.4142 19.75 21.75 19.4142 21.75 19C21.75 18.5858 21.4142 18.25 21 18.25H18.75V16Z" fill="black"/>
</svg>
