<svg width="24" height="24" viewBox="0 0 24 24" fill="none" xmlns="http://www.w3.org/2000/svg">
<rect width="24" height="24" fill="white"/>
<path d="M14.0173 3.27816C12.8352 2.34236 11.1648 2.34236 9.98271 3.27816L3.98272 8.02816C3.20407 8.64459 2.75 9.5832 2.75 10.5763V18C2.75 19.7949 4.20507 21.25 6 21.25H7.75C8.99264 21.25 10 20.2426 10 19V16.6667C10 15.7002 10.7835 14.9167 11.75 14.9167H12.25C13.2165 14.9167 14 15.7002 14 16.6667V19C14 20.2426 15.0074 21.25 16.25 21.25H18C19.7949 21.25 21.25 19.7949 21.25 18V10.5763C21.25 9.5832 20.7959 8.64459 20.0173 8.02816L14.0173 3.27816Z" fill="black"/>
</svg>
