<svg width="24" height="24" viewBox="0 0 24 24" fill="none" xmlns="http://www.w3.org/2000/svg">
<rect width="24" height="24" fill="white"/>
<path d="M14.3276 2.88612C12.9637 1.80635 11.0363 1.80635 9.67236 2.88612L3.67236 7.63612C2.77393 8.34738 2.25 9.43039 2.25 10.5763V18C2.25 20.0711 3.92893 21.75 6 21.75H7.75C9.26878 21.75 10.5 20.5188 10.5 19V16.6667C10.5 15.9763 11.0596 15.4167 11.75 15.4167H12.25C12.9404 15.4167 13.5 15.9763 13.5 16.6667V19C13.5 20.5188 14.7312 21.75 16.25 21.75H18C20.0711 21.75 21.75 20.0711 21.75 18V10.5763C21.75 9.43039 21.2261 8.34738 20.3276 7.63612L14.3276 2.88612Z" fill="black"/>
</svg>
