<svg width="24" height="24" viewBox="0 0 24 24" fill="none" xmlns="http://www.w3.org/2000/svg">
<path fill-rule="evenodd" clip-rule="evenodd" d="M8.54151 3.26286C8.29626 3.22447 8.0282 3.26897 7.74833 3.43924C5.04925 5.08145 3.25 8.03747 3.25 11.4102C3.25 16.5669 7.45735 20.75 12.6507 20.75C16.0335 20.75 18.9986 18.9751 20.6547 16.3112C20.8005 16.0768 20.7703 15.8274 20.6224 15.6217C20.4702 15.41 20.1975 15.2563 19.8887 15.2563C14.4222 15.2563 9.98803 10.8524 9.98803 5.41649C9.98803 4.71358 9.68625 4.03468 9.24934 3.6297C9.03269 3.42888 8.79015 3.30178 8.54151 3.26286ZM9.58924 3.263C10.1348 3.76866 10.488 4.58355 10.488 5.41649C10.488 10.5733 14.6954 14.7563 19.8887 14.7563C20.3604 14.7563 20.7833 14.9891 21.0283 15.3298C21.2777 15.6765 21.3464 16.1456 21.0794 16.5752C19.3353 19.3805 16.2125 21.25 12.6507 21.25C7.18419 21.25 2.75 16.846 2.75 11.4102C2.75 7.85478 4.64736 4.74069 7.48844 3.01209C7.86335 2.78399 8.25014 2.71116 8.61884 2.76888C8.98415 2.82606 9.31467 3.0085 9.58924 3.263Z" fill="black"/>
</svg>
