<svg width="24" height="24" viewBox="0 0 24 24" fill="none" xmlns="http://www.w3.org/2000/svg">
<path d="M11.25 2L11.25 14.1894L7.53033 10.4697C7.23744 10.1768 6.76256 10.1768 6.46967 10.4697C6.17678 10.7626 6.17678 11.2375 6.46967 11.5304L10.7626 15.8233C11.446 16.5067 12.554 16.5067 13.2374 15.8233L17.5303 11.5304C17.8232 11.2375 17.8232 10.7626 17.5303 10.4697C17.2374 10.1768 16.7626 10.1768 16.4697 10.4697L12.75 14.1894L12.75 2C12.75 1.58579 12.4142 1.25 12 1.25C11.5858 1.25 11.25 1.58579 11.25 2Z" fill="black"/>
<path d="M3.75 13C3.75 12.5858 3.41421 12.25 3 12.25C2.58579 12.25 2.25 12.5858 2.25 13V18C2.25 20.0711 3.92893 21.75 6 21.75H18C20.0711 21.75 21.75 20.0711 21.75 18V13C21.75 12.5858 21.4142 12.25 21 12.25C20.5858 12.25 20.25 12.5858 20.25 13V18C20.25 19.2426 19.2426 20.25 18 20.25H6C4.75736 20.25 3.75 19.2426 3.75 18V13Z" fill="black"/>
</svg>
