<svg width="24" height="24" viewBox="0 0 24 24" fill="none" xmlns="http://www.w3.org/2000/svg">
<rect width="24" height="24" fill="white"/>
<path d="M9 17.25C8.58579 17.25 8.25 17.5858 8.25 18C8.25 18.4142 8.58579 18.75 9 18.75H15C15.4142 18.75 15.75 18.4142 15.75 18C15.75 17.5858 15.4142 17.25 15 17.25H9Z" fill="black"/>
<path fill-rule="evenodd" clip-rule="evenodd" d="M14.3276 2.88614C12.9637 1.80637 11.0363 1.80637 9.67236 2.88614L3.67236 7.63614C2.77393 8.3474 2.25 9.43041 2.25 10.5763V18C2.25 20.0711 3.92893 21.75 6 21.75H18C20.0711 21.75 21.75 20.0711 21.75 18V10.5763C21.75 9.43041 21.2261 8.3474 20.3276 7.63614L14.3276 2.88614ZM10.6034 4.06221C11.4218 3.41434 12.5782 3.41434 13.3966 4.06221L19.3966 8.8122C19.9356 9.23896 20.25 9.88877 20.25 10.5763V18C20.25 19.2426 19.2426 20.25 18 20.25H6C4.75736 20.25 3.75 19.2426 3.75 18V10.5763C3.75 9.88877 4.06436 9.23896 4.60342 8.81221L10.6034 4.06221Z" fill="black"/>
</svg>
