<svg width="24" height="24" viewBox="0 0 24 24" fill="none" xmlns="http://www.w3.org/2000/svg">
<path fill-rule="evenodd" clip-rule="evenodd" d="M10.3557 3.308C11.0225 1.89734 12.9776 1.89733 13.6444 3.308L15.5924 7.42926C15.6479 7.54675 15.7455 7.61098 15.8386 7.6251L20.1875 8.28492C21.7257 8.5183 22.2438 10.4261 21.2067 11.4816L18.0651 14.6791C17.9819 14.7637 17.9361 14.8967 17.9587 15.0346L18.7011 19.5538C18.9405 21.0114 17.4486 22.3008 16.0371 21.526L12.1394 19.3864C12.0509 19.3378 11.9492 19.3378 11.8607 19.3864L7.96298 21.526C6.55152 22.3008 5.0596 21.0114 5.29903 19.5538L6.04139 15.0346C6.06403 14.8967 6.01819 14.7637 5.93498 14.6791L2.7934 11.4816C1.75628 10.4261 2.27443 8.5183 3.8126 8.28492L8.16154 7.6251C8.2546 7.61098 8.35221 7.54675 8.40774 7.42926L10.3557 3.308ZM12.0001 3.75C11.8951 3.75 11.7814 3.80202 11.7119 3.94901L9.76388 8.07027C9.50462 8.61877 8.99524 9.01578 8.38655 9.10813L4.0376 9.76795C3.91793 9.78611 3.8163 9.8694 3.77031 10.0181C3.72397 10.168 3.75631 10.3214 3.86337 10.4304L7.00494 13.6278C7.43241 14.0628 7.61969 14.6803 7.52155 15.2777L6.7792 19.797C6.7505 19.9717 6.82087 20.1075 6.92208 20.1847C7.02007 20.2595 7.13026 20.2719 7.24118 20.211L11.1389 18.0715C11.677 17.7761 12.3231 17.7761 12.8612 18.0715L16.7589 20.211C16.8699 20.2719 16.98 20.2595 17.078 20.1847C17.1793 20.1075 17.2496 19.9717 17.2209 19.797L16.4786 15.2777C16.3804 14.6803 16.5677 14.0628 16.9952 13.6278L20.1368 10.4304C20.2438 10.3214 20.2762 10.168 20.2298 10.0181C20.1838 9.8694 20.0822 9.78611 19.9625 9.76795L15.6136 9.10813C15.0049 9.01578 14.4955 8.61877 14.2362 8.07027L12.2882 3.94901C12.2188 3.80202 12.1051 3.75 12.0001 3.75Z" fill="black"/>
</svg>
