<svg width="24" height="24" viewBox="0 0 24 24" fill="none" xmlns="http://www.w3.org/2000/svg">
<rect width="24" height="24" fill="white"/>
<path d="M14.1725 3.08215C12.8995 2.07436 11.1005 2.07436 9.82754 3.08215L3.82754 7.83215C2.989 8.49599 2.5 9.5068 2.5 10.5763V18C2.5 19.933 4.067 21.5 6 21.5H7.75C9.13071 21.5 10.25 20.3807 10.25 19V16.6667C10.25 15.8382 10.9216 15.1667 11.75 15.1667H12.25C13.0784 15.1667 13.75 15.8382 13.75 16.6667V19C13.75 20.3807 14.8693 21.5 16.25 21.5H18C19.933 21.5 21.5 19.933 21.5 18V10.5763C21.5 9.5068 21.011 8.49599 20.1725 7.83215L14.1725 3.08215Z" fill="black"/>
</svg>
