<svg width="24" height="24" viewBox="0 0 24 24" fill="none" xmlns="http://www.w3.org/2000/svg">
<rect width="24" height="24" fill="white"/>
<path fill-rule="evenodd" clip-rule="evenodd" d="M9.67236 2.88612C11.0363 1.80635 12.9637 1.80635 14.3276 2.88612L20.3276 7.63612C21.2261 8.34738 21.75 9.43039 21.75 10.5763V18C21.75 20.0711 20.0711 21.75 18 21.75H16.25C14.7312 21.75 13.5 20.5188 13.5 19V16.6667C13.5 15.9763 12.9404 15.4167 12.25 15.4167H11.75C11.0596 15.4167 10.5 15.9763 10.5 16.6667V19C10.5 20.5188 9.26878 21.75 7.75 21.75H6C3.92893 21.75 2.25 20.0711 2.25 18V10.5763C2.25 9.43039 2.77393 8.34738 3.67236 7.63612L9.67236 2.88612ZM13.3966 4.06219C12.5782 3.41433 11.4218 3.41433 10.6034 4.06219L4.60342 8.81219C4.06436 9.23895 3.75 9.88875 3.75 10.5763V18C3.75 19.2426 4.75736 20.25 6 20.25H7.75C8.44036 20.25 9 19.6903 9 19V16.6667C9 15.1479 10.2312 13.9167 11.75 13.9167H12.25C13.7688 13.9167 15 15.1479 15 16.6667V19C15 19.6903 15.5596 20.25 16.25 20.25H18C19.2426 20.25 20.25 19.2426 20.25 18V10.5763C20.25 9.88875 19.9356 9.23895 19.3966 8.81219L13.3966 4.06219Z" fill="black"/>
</svg>
