<svg width="24" height="24" viewBox="0 0 24 24" fill="none" xmlns="http://www.w3.org/2000/svg">
<path d="M12 1.5C11.7239 1.5 11.5 1.72386 11.5 2V4C11.5 4.27614 11.7239 4.5 12 4.5C12.2761 4.5 12.5 4.27614 12.5 4V2C12.5 1.72386 12.2761 1.5 12 1.5Z" fill="black"/>
<path d="M12 6.5C8.96243 6.5 6.5 8.96243 6.5 12C6.5 15.0376 8.96243 17.5 12 17.5C15.0376 17.5 17.5 15.0376 17.5 12C17.5 8.96243 15.0376 6.5 12 6.5Z" fill="black"/>
<path d="M11.5 20C11.5 19.7239 11.7239 19.5 12 19.5C12.2761 19.5 12.5 19.7239 12.5 20V22C12.5 22.2761 12.2761 22.5 12 22.5C11.7239 22.5 11.5 22.2761 11.5 22V20Z" fill="black"/>
<path d="M22.5 12C22.5 11.7239 22.2761 11.5 22 11.5H20C19.7239 11.5 19.5 11.7239 19.5 12C19.5 12.2761 19.7239 12.5 20 12.5H22C22.2761 12.5 22.5 12.2761 22.5 12Z" fill="black"/>
<path d="M4 11.5C4.27614 11.5 4.5 11.7239 4.5 12C4.5 12.2761 4.27614 12.5 4 12.5H2C1.72386 12.5 1.5 12.2761 1.5 12C1.5 11.7239 1.72386 11.5 2 11.5H4Z" fill="black"/>
<path d="M19.4246 19.4246C19.6199 19.2293 19.6199 18.9128 19.4246 18.7175L18.0104 17.3033C17.8151 17.108 17.4985 17.108 17.3033 17.3033C17.108 17.4985 17.108 17.8151 17.3033 18.0104L18.7175 19.4246C18.9128 19.6199 19.2293 19.6199 19.4246 19.4246Z" fill="black"/>
<path d="M6.69669 5.98959C6.89196 6.18485 6.89196 6.50143 6.69669 6.69669C6.50143 6.89196 6.18485 6.89196 5.98959 6.69669L4.57537 5.28248C4.38011 5.08722 4.38011 4.77063 4.57537 4.57537C4.77064 4.38011 5.08722 4.38011 5.28248 4.57537L6.69669 5.98959Z" fill="black"/>
<path d="M4.5754 19.4246C4.77066 19.6198 5.08725 19.6198 5.28251 19.4246L6.69672 18.0104C6.89198 17.8151 6.89198 17.4985 6.69672 17.3033C6.50146 17.108 6.18488 17.108 5.98961 17.3033L4.5754 18.7175C4.38014 18.9127 4.38014 19.2293 4.5754 19.4246Z" fill="black"/>
<path d="M18.0104 6.69668C17.8152 6.89194 17.4986 6.89194 17.3033 6.69668C17.108 6.50142 17.108 6.18483 17.3033 5.98957L18.7175 4.57536C18.9128 4.3801 19.2294 4.3801 19.4246 4.57536C19.6199 4.77062 19.6199 5.0872 19.4246 5.28246L18.0104 6.69668Z" fill="black"/>
</svg>
