<svg width="24" height="24" viewBox="0 0 24 24" fill="none" xmlns="http://www.w3.org/2000/svg">
<path fill-rule="evenodd" clip-rule="evenodd" d="M9.92914 2.89629C10.5833 3.50263 10.988 4.45352 10.988 5.41648C10.988 10.2941 14.9685 14.2563 19.8887 14.2563C20.5232 14.2563 21.0964 14.5681 21.4343 15.0379C21.785 15.5256 21.8924 16.2144 21.504 16.8392C19.672 19.7859 16.3915 21.75 12.6507 21.75C6.91104 21.75 2.25 17.1252 2.25 11.4101C2.25 7.67208 4.24547 4.39993 7.22855 2.58493C7.69851 2.299 8.20402 2.19784 8.69616 2.27488C9.17815 2.35033 9.59666 2.58811 9.92914 2.89629ZM8.46418 3.75684C8.34238 3.73777 8.19304 3.75394 8.00823 3.86638C5.45114 5.42219 3.75 8.22014 3.75 11.4101C3.75 16.2878 7.7305 20.25 12.6507 20.25C15.8545 20.25 18.662 18.5696 20.2301 16.0472C20.2514 16.0129 20.2503 15.9962 20.2499 15.99C20.2491 15.9787 20.2436 15.9514 20.2165 15.9136C20.1571 15.831 20.0347 15.7563 19.8887 15.7563C14.1491 15.7563 9.48803 11.1315 9.48803 5.41648C9.48803 4.84359 9.23773 4.30069 8.90944 3.99639C8.7507 3.84925 8.59615 3.77749 8.46418 3.75684Z" fill="black"/>
</svg>
