<svg width="24" height="24" viewBox="0 0 24 24" fill="none" xmlns="http://www.w3.org/2000/svg">
<rect width="24" height="24" fill="white"/>
<path fill-rule="evenodd" clip-rule="evenodd" d="M17.3436 18.4044C15.6385 19.8666 13.4224 20.75 11 20.75C5.61522 20.75 1.25 16.3848 1.25 11C1.25 5.61522 5.61522 1.25 11 1.25C16.3848 1.25 20.75 5.61522 20.75 11C20.75 13.4224 19.8666 15.6385 18.4043 17.3437L22.48 21.4194C22.7729 21.7123 22.7729 22.1872 22.48 22.4801C22.1871 22.773 21.7123 22.773 21.4194 22.4801L17.3436 18.4044ZM2.75 11C2.75 6.44365 6.44365 2.75 11 2.75C15.5563 2.75 19.25 6.44365 19.25 11C19.25 13.227 18.3676 15.2478 16.9334 16.7321C16.8946 16.7584 16.8576 16.7888 16.8232 16.8233C16.7888 16.8577 16.7584 16.8946 16.732 16.9335C15.2478 18.3677 13.2269 19.25 11 19.25C6.44365 19.25 2.75 15.5563 2.75 11Z" fill="black"/>
</svg>
