<svg width="24" height="24" viewBox="0 0 24 24" fill="none" xmlns="http://www.w3.org/2000/svg">
<rect width="24" height="24" fill="white"/>
<path d="M12 3.75C9.37665 3.75 7.25 5.87665 7.25 8.5C7.25 11.1234 9.37665 13.25 12 13.25C14.6234 13.25 16.75 11.1234 16.75 8.5C16.75 5.87665 14.6234 3.75 12 3.75Z" fill="black"/>
<path d="M9 15.75C7.20507 15.75 5.75 17.2051 5.75 19V20C5.75 21.2426 6.75736 22.25 8 22.25H11.9988C12.3119 22.25 12.5535 22.0648 12.6808 21.8322C12.807 21.6017 12.8344 21.3033 12.7081 21.0378C12.4145 20.4205 12.2501 19.7298 12.2501 19C12.2501 18.2702 12.4145 17.5795 12.7081 16.9622C12.8344 16.6967 12.807 16.3983 12.6808 16.1678C12.5535 15.9352 12.3119 15.75 11.9988 15.75H9Z" fill="black"/>
<path d="M18.25 16C18.25 15.8619 18.1381 15.75 18 15.75C17.8619 15.75 17.75 15.8619 17.75 16V18.75H15C14.8619 18.75 14.75 18.8619 14.75 19C14.75 19.1381 14.8619 19.25 15 19.25H17.75V22C17.75 22.1381 17.8619 22.25 18 22.25C18.1381 22.25 18.25 22.1381 18.25 22V19.25H21C21.1381 19.25 21.25 19.1381 21.25 19C21.25 18.8619 21.1381 18.75 21 18.75H18.25V16Z" fill="black"/>
</svg>
