<svg width="24" height="24" viewBox="0 0 24 24" fill="none" xmlns="http://www.w3.org/2000/svg">
<rect width="24" height="24" fill="white"/>
<path fill-rule="evenodd" clip-rule="evenodd" d="M12 3.25C9.10051 3.25 6.75 5.60051 6.75 8.5C6.75 11.3995 9.10051 13.75 12 13.75C14.8995 13.75 17.25 11.3995 17.25 8.5C17.25 5.60051 14.8995 3.25 12 3.25ZM8.25 8.5C8.25 6.42893 9.92893 4.75 12 4.75C14.0711 4.75 15.75 6.42893 15.75 8.5C15.75 10.5711 14.0711 12.25 12 12.25C9.92893 12.25 8.25 10.5711 8.25 8.5Z" fill="black"/>
<path d="M9 16.75C7.75736 16.75 6.75 17.7574 6.75 19V20C6.75 20.6904 7.30964 21.25 8 21.25H12C12.4142 21.25 12.75 21.5858 12.75 22C12.75 22.4142 12.4142 22.75 12 22.75H8C6.48122 22.75 5.25 21.5188 5.25 20V19C5.25 16.9289 6.92893 15.25 9 15.25H12C12.4142 15.25 12.75 15.5858 12.75 16C12.75 16.4142 12.4142 16.75 12 16.75H9Z" fill="black"/>
<path d="M18.75 16C18.75 15.5858 18.4142 15.25 18 15.25C17.5858 15.25 17.25 15.5858 17.25 16V18.25H15C14.5858 18.25 14.25 18.5858 14.25 19C14.25 19.4142 14.5858 19.75 15 19.75H17.25V22C17.25 22.4142 17.5858 22.75 18 22.75C18.4142 22.75 18.75 22.4142 18.75 22V19.75H21C21.4142 19.75 21.75 19.4142 21.75 19C21.75 18.5858 21.4142 18.25 21 18.25H18.75V16Z" fill="black"/>
</svg>
