<svg width="24" height="24" viewBox="0 0 24 24" fill="none" xmlns="http://www.w3.org/2000/svg">
<rect width="24" height="24" fill="white"/>
<path fill-rule="evenodd" clip-rule="evenodd" d="M9.82754 3.08215C11.1005 2.07436 12.8995 2.07436 14.1725 3.08215L20.1725 7.83215C21.011 8.49599 21.5 9.5068 21.5 10.5763V18C21.5 19.933 19.933 21.5 18 21.5H16.25C14.8693 21.5 13.75 20.3807 13.75 19V16.6667C13.75 15.8382 13.0784 15.1667 12.25 15.1667H11.75C10.9216 15.1667 10.25 15.8382 10.25 16.6667V19C10.25 20.3807 9.13071 21.5 7.75 21.5H6C4.067 21.5 2.5 19.933 2.5 18V10.5763C2.5 9.5068 2.989 8.49599 3.82754 7.83215L9.82754 3.08215ZM13.5518 3.86619C12.6425 3.14635 11.3575 3.14635 10.4482 3.8662L4.44824 8.61619C3.84928 9.09037 3.5 9.81238 3.5 10.5763V18C3.5 19.3807 4.61929 20.5 6 20.5H7.75C8.57843 20.5 9.25 19.8284 9.25 19V16.6667C9.25 15.286 10.3693 14.1667 11.75 14.1667H12.25C13.6307 14.1667 14.75 15.286 14.75 16.6667V19C14.75 19.8284 15.4216 20.5 16.25 20.5H18C19.3807 20.5 20.5 19.3807 20.5 18V10.5763C20.5 9.81238 20.1507 9.09037 19.5518 8.61619L13.5518 3.86619Z" fill="black"/>
</svg>
