<svg width="24" height="24" viewBox="0 0 24 24" fill="none" xmlns="http://www.w3.org/2000/svg">
<rect width="24" height="24" fill="white"/>
<path fill-rule="evenodd" clip-rule="evenodd" d="M17.3547 18.0618C15.6714 19.5775 13.4434 20.5 11 20.5C5.75329 20.5 1.5 16.2467 1.5 11C1.5 5.75329 5.75329 1.5 11 1.5C16.2467 1.5 20.5 5.75329 20.5 11C20.5 13.4435 19.5775 15.6715 18.0618 17.3547L22.3033 21.5962C22.4985 21.7915 22.4985 22.1081 22.3033 22.3033C22.108 22.4986 21.7914 22.4986 21.5962 22.3033L17.3547 18.0618ZM2.5 11C2.5 6.30558 6.30558 2.5 11 2.5C15.6944 2.5 19.5 6.30558 19.5 11C19.5 13.3049 18.5826 15.3955 17.093 16.9267C17.0599 16.9469 17.0286 16.9714 17 17C16.9713 17.0287 16.9469 17.0599 16.9266 17.0931C15.3955 18.5826 13.3049 19.5 11 19.5C6.30558 19.5 2.5 15.6944 2.5 11Z" fill="black"/>
</svg>
