<svg width="24" height="24" viewBox="0 0 24 24" fill="none" xmlns="http://www.w3.org/2000/svg">
<rect width="24" height="24" fill="white"/>
<path fill-rule="evenodd" clip-rule="evenodd" d="M12 3.5C9.23858 3.5 7 5.73858 7 8.5C7 11.2614 9.23858 13.5 12 13.5C14.7614 13.5 17 11.2614 17 8.5C17 5.73858 14.7614 3.5 12 3.5ZM8 8.5C8 6.29086 9.79086 4.5 12 4.5C14.2091 4.5 16 6.29086 16 8.5C16 10.7091 14.2091 12.5 12 12.5C9.79086 12.5 8 10.7091 8 8.5Z" fill="black"/>
<path d="M9 16.5C7.61929 16.5 6.5 17.6193 6.5 19V20C6.5 20.8284 7.17157 21.5 8 21.5H12C12.2761 21.5 12.5 21.7239 12.5 22C12.5 22.2761 12.2761 22.5 12 22.5H8C6.61929 22.5 5.5 21.3807 5.5 20V19C5.5 17.067 7.067 15.5 9 15.5H12C12.2761 15.5 12.5 15.7239 12.5 16C12.5 16.2761 12.2761 16.5 12 16.5H9Z" fill="black"/>
<path d="M18.5 16C18.5 15.7239 18.2761 15.5 18 15.5C17.7239 15.5 17.5 15.7239 17.5 16V18.5H15C14.7239 18.5 14.5 18.7239 14.5 19C14.5 19.2761 14.7239 19.5 15 19.5H17.5V22C17.5 22.2761 17.7239 22.5 18 22.5C18.2761 22.5 18.5 22.2761 18.5 22V19.5H21C21.2761 19.5 21.5 19.2761 21.5 19C21.5 18.7239 21.2761 18.5 21 18.5H18.5V16Z" fill="black"/>
</svg>
