<svg width="24" height="24" viewBox="0 0 24 24" fill="none" xmlns="http://www.w3.org/2000/svg">
<rect width="24" height="24" fill="white"/>
<path fill-rule="evenodd" clip-rule="evenodd" d="M12 3.75C9.37665 3.75 7.25 5.87665 7.25 8.5C7.25 11.1234 9.37665 13.25 12 13.25C14.6234 13.25 16.75 11.1234 16.75 8.5C16.75 5.87665 14.6234 3.75 12 3.75ZM7.75 8.5C7.75 6.15279 9.65279 4.25 12 4.25C14.3472 4.25 16.25 6.15279 16.25 8.5C16.25 10.8472 14.3472 12.75 12 12.75C9.65279 12.75 7.75 10.8472 7.75 8.5Z" fill="black"/>
<path d="M9 16.25C7.48122 16.25 6.25 17.4812 6.25 19V20C6.25 20.9665 7.0335 21.75 8 21.75H12C12.1381 21.75 12.25 21.8619 12.25 22C12.25 22.1381 12.1381 22.25 12 22.25H8C6.75736 22.25 5.75 21.2426 5.75 20V19C5.75 17.2051 7.20507 15.75 9 15.75H12C12.1381 15.75 12.25 15.8619 12.25 16C12.25 16.1381 12.1381 16.25 12 16.25H9Z" fill="black"/>
<path d="M18.25 16C18.25 15.8619 18.1381 15.75 18 15.75C17.8619 15.75 17.75 15.8619 17.75 16V18.75H15C14.8619 18.75 14.75 18.8619 14.75 19C14.75 19.1381 14.8619 19.25 15 19.25H17.75V22C17.75 22.1381 17.8619 22.25 18 22.25C18.1381 22.25 18.25 22.1381 18.25 22V19.25H21C21.1381 19.25 21.25 19.1381 21.25 19C21.25 18.8619 21.1381 18.75 21 18.75H18.25V16Z" fill="black"/>
</svg>
