<svg width="24" height="24" viewBox="0 0 24 24" fill="none" xmlns="http://www.w3.org/2000/svg">
<path fill-rule="evenodd" clip-rule="evenodd" d="M13 1.5C10.3872 1.5 8.13553 3.04158 7.10293 5.26263C7.00855 5.46561 6.82069 5.62167 6.59352 5.6816C4.23765 6.30312 2.5 8.448 2.5 11C2.5 14.0376 4.96243 16.5 8 16.5H17.5C19.7091 16.5 21.5 14.7091 21.5 12.5C21.5 11.1815 20.8615 10.012 19.8791 9.28413C19.609 9.08402 19.4602 8.77656 19.4815 8.49439C19.4937 8.33111 19.5 8.16624 19.5 8C19.5 4.41015 16.5899 1.5 13 1.5ZM8.00972 5.68421C8.88443 3.80277 10.7906 2.5 13 2.5C16.0376 2.5 18.5 4.96243 18.5 8C18.5 8.14116 18.4947 8.28099 18.4843 8.41931C18.4334 9.09528 18.7818 9.71576 19.2838 10.0876C20.0226 10.635 20.5 11.5117 20.5 12.5C20.5 14.1569 19.1569 15.5 17.5 15.5H8C5.51472 15.5 3.5 13.4853 3.5 11C3.5 8.91326 4.92081 7.15711 6.84861 6.64852C7.35248 6.51559 7.78535 6.1668 8.00972 5.68421Z" fill="black"/>
<path d="M8.47434 19.1581C8.56166 18.8962 8.42008 18.613 8.15811 18.5257C7.89614 18.4383 7.61298 18.5799 7.52566 18.8419L6.52566 21.8419C6.43833 22.1039 6.57991 22.387 6.84188 22.4744C7.10386 22.5617 7.38702 22.4201 7.47434 22.1581L8.47434 19.1581Z" fill="black"/>
<path d="M12.4743 19.1581C12.5617 18.8962 12.4201 18.613 12.1581 18.5257C11.8961 18.4383 11.613 18.5799 11.5257 18.8419L10.5257 21.8419C10.4383 22.1039 10.5799 22.387 10.8419 22.4744C11.1039 22.5617 11.387 22.4201 11.4743 22.1581L12.4743 19.1581Z" fill="black"/>
<path d="M16.1581 18.5257C16.4201 18.613 16.5617 18.8962 16.4743 19.1581L15.4743 22.1581C15.387 22.4201 15.1039 22.5617 14.8419 22.4744C14.5799 22.387 14.4383 22.1039 14.5257 21.8419L15.5257 18.8419C15.613 18.5799 15.8961 18.4383 16.1581 18.5257Z" fill="black"/>
</svg>
