<svg width="24" height="24" viewBox="0 0 24 24" fill="none" xmlns="http://www.w3.org/2000/svg">
<path fill-rule="evenodd" clip-rule="evenodd" d="M9.75919 3.07966C10.359 3.63566 10.738 4.51855 10.738 5.4165C10.738 10.4337 14.832 14.5064 19.8887 14.5064C20.4418 14.5064 20.9399 14.7786 21.2313 15.1838C21.5314 15.6011 21.6194 16.18 21.2917 16.7072C19.5037 19.5832 16.302 21.5 12.6507 21.5C7.04761 21.5 2.5 16.9856 2.5 11.4102C2.5 7.76345 4.44641 4.57033 7.3585 2.79853C7.78093 2.54151 8.22708 2.45452 8.6575 2.5219C9.08115 2.58821 9.45567 2.79832 9.75919 3.07966ZM8.50285 3.50986C8.31932 3.48114 8.11062 3.51147 7.87828 3.65283C5.25019 5.25183 3.5 8.12882 3.5 11.4102C3.5 16.4274 7.59393 20.5 12.6507 20.5C15.944 20.5 18.8303 18.7723 20.4424 16.1792C20.5275 16.0424 20.5166 15.9028 20.4194 15.7677C20.3136 15.6205 20.1161 15.5064 19.8887 15.5064C14.2856 15.5064 9.73803 10.992 9.73803 5.4165C9.73803 4.7786 9.46199 4.1677 9.07939 3.81306C8.8917 3.63908 8.69315 3.53965 8.50285 3.50986Z" fill="black"/>
</svg>
