<svg width="24" height="24" viewBox="0 0 24 24" fill="none" xmlns="http://www.w3.org/2000/svg">
<rect width="24" height="24" fill="white"/>
<path fill-rule="evenodd" clip-rule="evenodd" d="M9.98271 3.27816C11.1648 2.34236 12.8352 2.34236 14.0173 3.27816L20.0173 8.02816C20.7959 8.64459 21.25 9.5832 21.25 10.5763V18C21.25 19.7949 19.7949 21.25 18 21.25H16.25C15.0074 21.25 14 20.2426 14 19V16.6667C14 15.7002 13.2165 14.9167 12.25 14.9167H11.75C10.7835 14.9167 10 15.7002 10 16.6667V19C10 20.2426 8.99264 21.25 7.75 21.25H6C4.20507 21.25 2.75 19.7949 2.75 18V10.5763C2.75 9.5832 3.20407 8.64459 3.98272 8.02816L9.98271 3.27816ZM13.7069 3.67018C12.7067 2.87835 11.2933 2.87835 10.2931 3.67018L4.29307 8.42018C3.63421 8.94178 3.25 9.73598 3.25 10.5763V18C3.25 19.5188 4.48122 20.75 6 20.75H7.75C8.7165 20.75 9.5 19.9665 9.5 19V16.6667C9.5 15.424 10.5074 14.4167 11.75 14.4167H12.25C13.4926 14.4167 14.5 15.424 14.5 16.6667V19C14.5 19.9665 15.2835 20.75 16.25 20.75H18C19.5188 20.75 20.75 19.5188 20.75 18V10.5763C20.75 9.73598 20.3658 8.94177 19.7069 8.42018L13.7069 3.67018Z" fill="black"/>
</svg>
