<svg width="24" height="24" viewBox="0 0 24 24" fill="none" xmlns="http://www.w3.org/2000/svg">
<rect width="24" height="24" fill="white"/>
<path fill-rule="evenodd" clip-rule="evenodd" d="M17.3616 17.7152C15.7037 19.2863 13.4644 20.25 11 20.25C5.89137 20.25 1.75 16.1086 1.75 11C1.75 5.89137 5.89137 1.75 11 1.75C16.1086 1.75 20.25 5.89137 20.25 11C20.25 13.4644 19.2863 15.7037 17.7151 17.3616L22.1265 21.773C22.2241 21.8706 22.2241 22.0289 22.1265 22.1265C22.0289 22.2242 21.8706 22.2242 21.7729 22.1265L17.3616 17.7152ZM2.25 11C2.25 6.16751 6.16751 2.25 11 2.25C15.8325 2.25 19.75 6.16751 19.75 11C19.75 13.3862 18.7949 15.5493 17.246 17.1278C17.221 17.1397 17.1975 17.156 17.1767 17.1768C17.156 17.1975 17.1397 17.221 17.1277 17.2461C15.5492 18.7949 13.3861 19.75 11 19.75C6.16751 19.75 2.25 15.8325 2.25 11Z" fill="black"/>
</svg>
