<svg width="24" height="24" viewBox="0 0 24 24" fill="none" xmlns="http://www.w3.org/2000/svg">
<rect width="24" height="24" fill="white"/>
<path d="M12 3.5C9.23858 3.5 7 5.73858 7 8.5C7 11.2614 9.23858 13.5 12 13.5C14.7614 13.5 17 11.2614 17 8.5C17 5.73858 14.7614 3.5 12 3.5Z" fill="black"/>
<path d="M9 15.5C7.067 15.5 5.5 17.067 5.5 19V20C5.5 21.3807 6.61929 22.5 8 22.5H11.9988C12.4188 22.5 12.737 22.2503 12.9002 21.9522C13.0609 21.6584 13.0979 21.2753 12.9338 20.9304C12.6559 20.346 12.5001 19.6919 12.5001 19C12.5001 18.3081 12.6559 17.654 12.9338 17.0696C13.0979 16.7247 13.0609 16.3416 12.9002 16.0478C12.737 15.7497 12.4188 15.5 11.9988 15.5H9Z" fill="black"/>
<path d="M18.5 16C18.5 15.7239 18.2761 15.5 18 15.5C17.7239 15.5 17.5 15.7239 17.5 16V18.5H15C14.7239 18.5 14.5 18.7239 14.5 19C14.5 19.2761 14.7239 19.5 15 19.5H17.5V22C17.5 22.2761 17.7239 22.5 18 22.5C18.2761 22.5 18.5 22.2761 18.5 22V19.5H21C21.2761 19.5 21.5 19.2761 21.5 19C21.5 18.7239 21.2761 18.5 21 18.5H18.5V16Z" fill="black"/>
</svg>
