<svg width="70" height="47" viewBox="0 0 70 47" fill="none" xmlns="http://www.w3.org/2000/svg">
<g id="Logo-02 1">
<path id="Vector" d="M58.7952 9.96563C54.7195 9.96563 51.4152 13.2715 51.4152 17.3479C51.4152 21.4244 54.7195 24.7282 58.7952 24.7282C62.871 24.7282 66.1752 21.4234 66.1752 17.3479C66.1752 13.2724 62.871 9.96563 58.7952 9.96563ZM23.1252 9.96563C19.0495 9.96563 15.7452 13.2715 15.7452 17.3479C15.7452 21.4244 19.0495 24.7282 23.1252 24.7282C27.2009 24.7282 30.5052 21.4234 30.5052 17.3479C30.5052 13.2724 27.2009 9.96563 23.1252 9.96563ZM32.9652 0.123901V24.7282H39.1152V5.80159L32.9652 0.123901ZM48.9552 14.8865L43.5078 9.85639L39.1152 19.1922L44.0352 24.7282H48.9552V21.0376L46.4952 18.5771L48.9552 14.8865ZM17.7929 0.127837L7.13521 10.7914V24.7282H13.2852V13.2872L22.1491 4.47395V0.128821H17.7929V0.127837ZM9.50665 4.47493L5.15836 8.82399L0.810059 4.47493L5.15836 0.125869L9.50665 4.47493Z" fill="#2B2B2B"/>
<path id="Vector_2" d="M52.6448 32.7247C52.6448 31.026 54.0214 29.6491 55.7198 29.6491C57.4182 29.6491 58.7948 31.026 58.7948 32.7247C58.7948 34.4233 57.4182 35.8002 55.7198 35.8002C54.0214 35.8002 52.6448 34.4233 52.6448 32.7247ZM58.7948 46.8721V40.106L56.3348 37.0304H52.6448V46.8721H58.7948ZM69.8648 37.0304V34.57H68.0198V32.0613L65.5598 29.656L61.8698 29.6481V34.569H60.0248V39.4899L61.8698 38.8748V42.1245C61.8698 42.1245 61.8698 46.8712 64.9448 46.8712H69.8648V40.7201H68.0198V37.491L69.8648 37.0294V37.0304ZM31.7348 33.3398V29.657L28.6598 29.6491L25.5848 32.1095V46.8721H31.7348V41.9513L35.4248 38.2606V32.1095H33.568L31.7348 33.3398ZM24.3548 38.2606C24.3548 33.5051 20.4995 29.6491 15.7448 29.6491C10.9901 29.6491 7.13477 33.5051 7.13477 38.2606C7.13477 43.0162 10.9901 46.8721 15.7448 46.8721C20.4995 46.8721 24.3548 43.0162 24.3548 38.2606ZM44.0417 32.1095C43.7248 32.1095 43.4129 32.1322 43.1069 32.1706V29.6491H36.6617V39.4908C36.6617 43.5673 39.9659 46.8721 44.0417 46.8721C48.1174 46.8721 51.4217 43.5673 51.4217 39.4908C51.4217 35.4144 48.1174 32.1095 44.0417 32.1095Z" fill="#2B2B2B"/>
</g>
</svg>
